<svg width="22" height="22" viewBox="0 0 22 22" fill="none" xmlns="http://www.w3.org/2000/svg">
<mask id="mask0_2344_859" style="mask-type:alpha" maskUnits="userSpaceOnUse" x="0" y="0" width="22" height="22">
<rect width="22" height="22" fill="#D9D9D9"/>
</mask>
<g mask="url(#mask0_2344_859)">
<path d="M13.7502 16.5V14.6667H17.4168V16.5H13.7502ZM13.7502 9.16667V7.33333H20.1668V9.16667H13.7502ZM13.7502 12.8333V11H19.2502V12.8333H13.7502ZM2.75016 7.33333H1.8335V5.5H5.50016V4.125H9.16683V5.5H12.8335V7.33333H11.9168V15.5833C11.9168 16.0875 11.7373 16.5191 11.3783 16.8781C11.0193 17.2372 10.5877 17.4167 10.0835 17.4167H4.5835C4.07933 17.4167 3.64773 17.2372 3.2887 16.8781C2.92968 16.5191 2.75016 16.0875 2.75016 15.5833V7.33333Z" fill="#DD3333"/>
</g>
</svg>
