<svg width="155" height="49" viewBox="0 0 155 49" fill="none" xmlns="http://www.w3.org/2000/svg">
<path d="M40.2422 12.9265C40.2422 12.1875 40.4786 11.4679 40.9168 10.8729C42.8996 8.18022 47.1693 9.58263 47.1693 12.9265V39.2832C47.1693 41.196 45.6186 42.7467 43.7058 42.7467C41.7929 42.7467 40.2422 41.196 40.2422 39.2832V12.9265Z" fill="#FF7A01"/>
<path d="M41.5937 9.97034L22.0044 36.7483C20.1835 39.2374 21.964 42.7399 25.048 42.7356C26.3214 42.7338 27.5076 42.0884 28.2008 41.0202L32.9802 33.6548C33.8094 32.3768 34.8084 31.225 35.8958 30.158C39.3541 26.7648 47.0057 18.5136 47.1693 11.788C47.2627 7.94918 43.8609 6.87111 41.5937 9.97034Z" fill="#FF7A01"/>
<path d="M133.186 12.9265C133.186 12.1875 133.422 11.4679 133.86 10.8729C135.843 8.18022 140.113 9.58263 140.113 12.9265V39.2832C140.113 41.196 138.562 42.7467 136.649 42.7467C134.736 42.7467 133.186 41.196 133.186 39.2832V12.9265Z" fill="#1DA990"/>
<path d="M134.537 9.97034L114.948 36.7483C113.127 39.2374 114.908 42.7399 117.992 42.7356C119.265 42.7338 120.451 42.0884 121.144 41.0202L125.924 33.6548C126.753 32.3768 127.752 31.225 128.839 30.158C132.298 26.7648 139.949 18.5136 140.113 11.788C140.206 7.94918 136.804 6.87111 134.537 9.97034Z" fill="#1DA990"/>
<path fill-rule="evenodd" clip-rule="evenodd" d="M149.861 42.4455C147.307 42.4455 145.237 40.3755 145.237 37.8219V15.2765C145.237 11.8329 148.867 9.5978 151.942 11.1476C153.501 11.9335 154.484 13.5305 154.484 15.2765V37.822C154.484 40.3755 152.414 42.4455 149.861 42.4455Z" fill="#1CA990"/>
<path d="M13.329 31.5613C6.38183 31.5613 0.750042 25.9295 0.750042 18.9823C0.750042 12.0351 6.38183 6.40332 13.329 6.40332C20.2762 6.40332 25.908 12.0351 25.908 18.9823C25.908 25.9295 20.2762 31.5613 13.329 31.5613ZM13.329 12.9381C9.99089 12.9381 7.28481 15.6442 7.28481 18.9823C7.28481 22.3204 9.99089 25.0265 13.329 25.0265C16.6671 25.0265 19.3732 22.3204 19.3732 18.9823C19.3732 15.6442 16.6671 12.9381 13.329 12.9381Z" fill="#FF7A01"/>
<path d="M21.9061 22.6071C23.5683 23.3095 25.5327 22.5256 25.7847 20.7388C25.9305 19.7053 25.9476 18.6536 25.8326 17.6078C25.598 15.4735 24.8209 13.4347 23.5754 11.6856C22.3299 9.93655 20.6573 8.53544 18.717 7.6157C16.7768 6.69596 14.6333 6.28821 12.4909 6.43127C10.3484 6.57434 8.27826 7.26346 6.4775 8.43301C4.67674 9.60256 3.20534 11.2136 2.20341 13.1128C1.20148 15.0119 0.702375 17.1359 0.753626 19.2825C0.778736 20.3343 0.93557 21.3744 1.2174 22.3793C1.70472 24.1167 3.75598 24.6325 5.31001 23.7153L5.47272 23.6193C6.93689 22.7551 7.32711 20.8263 7.28653 19.1266C7.26191 18.0951 7.50173 17.0745 7.98315 16.162C8.46458 15.2494 9.17159 14.4753 10.0369 13.9134C10.9021 13.3514 11.8968 13.0203 12.9263 12.9515C13.9557 12.8828 14.9857 13.0787 15.918 13.5206C16.8503 13.9626 17.6539 14.6358 18.2524 15.4762C18.8509 16.3167 19.2243 17.2963 19.337 18.3219C19.5228 20.0119 20.166 21.8717 21.7321 22.5335L21.9061 22.6071Z" fill="#FF7A01"/>
<path d="M0.749939 19.1849C0.749939 15.8054 5.24283 14.6343 6.89254 17.5838C7.1662 18.0731 7.30989 18.6243 7.30989 19.1849V38.308C7.30989 40.1195 5.84139 41.588 4.02991 41.588C2.21843 41.588 0.749939 40.1195 0.749939 38.308V19.1849Z" fill="#FF7A01"/>
<path d="M63.6165 31.5613C56.6693 31.5613 51.0375 25.9295 51.0375 18.9823C51.0375 12.0351 56.6693 6.40332 63.6165 6.40332C70.5636 6.40332 76.1954 12.0351 76.1954 18.9823C76.1954 25.9295 70.5636 31.5613 63.6165 31.5613ZM63.6165 12.9381C60.2784 12.9381 57.5723 15.6442 57.5723 18.9823C57.5723 22.3204 60.2784 25.0265 63.6165 25.0265C66.9546 25.0265 69.6607 22.3204 69.6607 18.9823C69.6607 15.6442 66.9546 12.9381 63.6165 12.9381Z" fill="#FF7A01"/>
<path d="M72.1936 22.6071C73.8558 23.3095 75.8202 22.5256 76.0722 20.7388C76.2179 19.7053 76.2351 18.6536 76.1201 17.6078C75.8855 15.4735 75.1084 13.4347 73.8629 11.6856C72.6173 9.93655 70.9448 8.53544 69.0045 7.6157C67.0642 6.69596 64.9208 6.28821 62.7784 6.43127C60.6359 6.57434 58.5657 7.26346 56.765 8.43301C54.9642 9.60256 53.4928 11.2136 52.4909 13.1128C51.489 15.0119 50.9899 17.1359 51.0411 19.2825C51.0662 20.3343 51.223 21.3744 51.5049 22.3793C51.9922 24.1167 54.0435 24.6325 55.5975 23.7153L55.7602 23.6193C57.2244 22.7551 57.6146 20.8263 57.574 19.1266C57.5494 18.0951 57.7892 17.0745 58.2706 16.162C58.7521 15.2494 59.4591 14.4753 60.3243 13.9134C61.1896 13.3514 62.1843 13.0203 63.2138 12.9515C64.2432 12.8828 65.2731 13.0787 66.2054 13.5206C67.1377 13.9626 67.9414 14.6358 68.5399 15.4762C69.1384 16.3167 69.5117 17.2963 69.6245 18.3219C69.8102 20.0119 70.4535 21.8717 72.0195 22.5335L72.1936 22.6071Z" fill="#FF7A01"/>
<path d="M51.0372 19.1849C51.0372 15.8054 55.5301 14.6343 57.1798 17.5838C57.4535 18.0731 57.5972 18.6243 57.5972 19.1849V38.308C57.5972 40.1195 56.1287 41.588 54.3172 41.588C52.5057 41.588 51.0372 40.1195 51.0372 38.308V19.1849Z" fill="#FF7A01"/>
<path fill-rule="evenodd" clip-rule="evenodd" d="M80.3351 35.5934C79.3228 35.5934 78.8125 36.7952 79.5458 37.4932C87.2549 44.8307 93.4176 44.8145 100.977 37.4853C101.7 36.7844 101.187 35.5934 100.18 35.5934H80.3351Z" fill="#FF7A01"/>
<path d="M78.9661 14.1275C78.9661 13.1693 79.7428 12.3926 80.701 12.3926H85.8388C86.797 12.3926 87.5737 13.1693 87.5737 14.1275V39.7742C87.5737 41.2246 85.8998 42.0347 84.7623 41.1349L79.6246 37.0703C79.2086 36.7412 78.9661 36.24 78.9661 35.7096V14.1275Z" fill="#FF7A01"/>
<path d="M93.3751 8.92539C93.3751 7.9672 94.1518 7.19043 95.11 7.19043H100.248C101.206 7.19043 101.983 7.9672 101.983 8.92539V35.5231C101.983 36.1 101.696 36.6391 101.218 36.9616L96.08 40.426C94.9276 41.203 93.3751 40.3773 93.3751 38.9875L93.3751 8.92539Z" fill="#FF7A01"/>
</svg>
