<svg width="150" height="71" viewBox="0 0 150 71" fill="none" xmlns="http://www.w3.org/2000/svg">
<g filter="url(#filter0_di_401_1791)">
<path d="M49.7162 27.1808C49.7162 26.6808 49.8761 26.194 50.1725 25.7915C51.5138 23.9699 54.4022 24.9186 54.4022 27.1808V45.0107C54.4022 46.3048 53.3532 47.3538 52.0592 47.3538C50.7652 47.3538 49.7162 46.3048 49.7162 45.0107V27.1808Z" fill="#FF7A01"/>
<path d="M50.6304 25.1813L37.3784 43.2963C36.1466 44.9802 37.3511 47.3496 39.4374 47.3467C40.2989 47.3455 41.1013 46.9089 41.5702 46.1863L44.6768 41.3988C45.3218 40.4047 46.1006 39.5084 46.9421 38.6741C49.3513 36.2857 54.2941 30.8558 54.4022 26.411C54.4654 23.814 52.1641 23.0847 50.6304 25.1813Z" fill="#FF7A01"/>
<path d="M112.592 27.1808C112.592 26.6808 112.751 26.194 113.048 25.7915C114.389 23.9699 117.278 24.9186 117.278 27.1808V45.0107C117.278 46.3048 116.229 47.3538 114.935 47.3538C113.641 47.3538 112.592 46.3048 112.592 45.0107V27.1808Z" fill="#1DA990"/>
<path d="M113.506 25.1813L100.254 43.2963C99.022 44.9802 100.227 47.3496 102.313 47.3467C103.174 47.3455 103.977 46.9089 104.446 46.1863L107.552 41.3988C108.197 40.4047 108.976 39.5084 109.818 38.6741C112.227 36.2857 117.17 30.8558 117.278 26.411C117.341 23.814 115.04 23.0847 113.506 25.1813Z" fill="#1DA990"/>
<path fill-rule="evenodd" clip-rule="evenodd" d="M123.872 47.1504C122.145 47.1504 120.744 45.75 120.744 44.0225V28.7708C120.744 26.4412 123.2 24.9292 125.28 25.9776C126.335 26.5092 127 27.5896 127 28.7708V44.0225C127 45.75 125.6 47.1504 123.872 47.1504Z" fill="#1CA990"/>
<path d="M31.5096 39.7872C26.8099 39.7872 23 35.9773 23 31.2776C23 26.578 26.8099 22.7681 31.5096 22.7681C36.2093 22.7681 40.0191 26.578 40.0191 31.2776C40.0191 35.9773 36.2093 39.7872 31.5096 39.7872ZM31.5096 27.1888C29.2514 27.1888 27.4207 29.0194 27.4207 31.2776C27.4207 33.5359 29.2514 35.3665 31.5096 35.3665C33.7678 35.3665 35.5984 33.5359 35.5984 31.2776C35.5984 29.0194 33.7678 27.1888 31.5096 27.1888Z" fill="#FF7A01"/>
<path d="M37.3119 33.7298C38.4363 34.205 39.7653 33.6747 39.9358 32.4659C40.0343 31.7668 40.0459 31.0553 39.9682 30.3478C39.8095 28.904 39.2838 27.5247 38.4412 26.3415C37.5986 25.1583 36.4671 24.2105 35.1545 23.5883C33.842 22.9661 32.3919 22.6902 30.9426 22.787C29.4932 22.8838 28.0928 23.35 26.8746 24.1412C25.6564 24.9324 24.661 26.0222 23.9832 27.307C23.3054 28.5917 22.9678 30.0286 23.0024 31.4808C23.0194 32.1923 23.1255 32.8959 23.3162 33.5757C23.6459 34.7511 25.0335 35.1 26.0848 34.4795L26.1949 34.4145C27.1854 33.8299 27.4493 32.5251 27.4219 31.3752C27.4052 30.6775 27.5675 29.9871 27.8932 29.3697C28.2188 28.7524 28.6971 28.2287 29.2825 27.8486C29.8678 27.4684 30.5407 27.2444 31.2371 27.1979C31.9336 27.1514 32.6303 27.2839 33.261 27.5829C33.8917 27.8819 34.4353 28.3373 34.8402 28.9058C35.2451 29.4744 35.4977 30.1371 35.5739 30.8309C35.6996 31.9741 36.1347 33.2323 37.1942 33.68L37.3119 33.7298Z" fill="#FF7A01"/>
<path d="M23 31.4151C23 29.1289 26.0394 28.3367 27.1554 30.332C27.3405 30.6629 27.4377 31.0359 27.4377 31.4151V44.3517C27.4377 45.5771 26.4443 46.5706 25.2188 46.5706C23.9934 46.5706 23 45.5771 23 44.3517V31.4151Z" fill="#FF7A01"/>
<path d="M65.5286 39.7872C60.8289 39.7872 57.019 35.9773 57.019 31.2776C57.019 26.578 60.8289 22.7681 65.5286 22.7681C70.2283 22.7681 74.0381 26.578 74.0381 31.2776C74.0381 35.9773 70.2283 39.7872 65.5286 39.7872ZM65.5286 27.1888C63.2704 27.1888 61.4398 29.0194 61.4398 31.2776C61.4398 33.5359 63.2704 35.3665 65.5286 35.3665C67.7868 35.3665 69.6174 33.5359 69.6174 31.2776C69.6174 29.0194 67.7868 27.1888 65.5286 27.1888Z" fill="#FF7A01"/>
<path d="M71.3309 33.7298C72.4554 34.205 73.7843 33.6747 73.9548 32.4659C74.0534 31.7668 74.065 31.0553 73.9872 30.3478C73.8285 28.904 73.3028 27.5247 72.4602 26.3415C71.6176 25.1583 70.4861 24.2105 69.1736 23.5883C67.861 22.9661 66.411 22.6902 64.9616 22.787C63.5123 22.8838 62.1118 23.35 60.8936 24.1412C59.6754 24.9324 58.68 26.0222 58.0022 27.307C57.3244 28.5917 56.9868 30.0286 57.0215 31.4808C57.0385 32.1923 57.1446 32.8959 57.3352 33.5757C57.6649 34.7511 59.0525 35.1 60.1038 34.4795L60.2139 34.4145C61.2044 33.8299 61.4684 32.5251 61.4409 31.3752C61.4243 30.6775 61.5865 29.9871 61.9122 29.3697C62.2379 28.7524 62.7161 28.2287 63.3015 27.8486C63.8868 27.4684 64.5598 27.2444 65.2562 27.1979C65.9526 27.1514 66.6493 27.2839 67.28 27.5829C67.9107 27.8819 68.4544 28.3373 68.8592 28.9058C69.2641 29.4744 69.5167 30.1371 69.593 30.8309C69.7186 31.9741 70.1538 33.2323 71.2132 33.68L71.3309 33.7298Z" fill="#FF7A01"/>
<path d="M57.0189 31.4151C57.0189 29.1289 60.0583 28.3367 61.1743 30.332C61.3594 30.6629 61.4566 31.0359 61.4566 31.4151V44.3517C61.4566 45.5771 60.4632 46.5706 59.2377 46.5706C58.0123 46.5706 57.0189 45.5771 57.0189 44.3517V31.4151Z" fill="#FF7A01"/>
<path fill-rule="evenodd" clip-rule="evenodd" d="M78.9679 42.7311C77.6038 42.7311 76.9213 44.3389 77.9788 45.2006C81.9663 48.4499 85.3946 48.4418 89.3169 45.1909C90.3615 44.3252 89.6753 42.7311 88.3186 42.7311H78.9679Z" fill="#FF7A01"/>
<path d="M75.9125 29.1654C75.9125 27.8698 76.9627 26.8195 78.2583 26.8195H79.3896C80.6852 26.8195 81.7355 27.8698 81.7355 29.1654V43.3661C81.7355 45.4701 79.1797 46.5103 77.7105 45.0043L76.5792 43.8448C76.1517 43.4066 75.9125 42.8187 75.9125 42.2066V29.1654Z" fill="#FF7A01"/>
<path d="M85.66 25.6466C85.66 24.351 86.7103 23.3008 88.0059 23.3008H89.1371C90.4327 23.3008 91.483 24.351 91.483 25.6466V42.137C91.483 42.7491 91.2437 43.337 90.8163 43.7751L89.685 44.9347C88.2158 46.4406 85.66 45.4004 85.66 43.2965L85.66 25.6466Z" fill="#FF7A01"/>
</g>
<defs>
<filter id="filter0_di_401_1791" x="0.323265" y="0.0914078" width="149.353" height="70.2186" filterUnits="userSpaceOnUse" color-interpolation-filters="sRGB">
<feFlood flood-opacity="0" result="BackgroundImageFix"/>
<feColorMatrix in="SourceAlpha" type="matrix" values="0 0 0 0 0 0 0 0 0 0 0 0 0 0 0 0 0 0 127 0" result="hardAlpha"/>
<feOffset/>
<feGaussianBlur stdDeviation="11.3383"/>
<feComposite in2="hardAlpha" operator="out"/>
<feColorMatrix type="matrix" values="0 0 0 0 1 0 0 0 0 1 0 0 0 0 1 0 0 0 0.4 0"/>
<feBlend mode="normal" in2="BackgroundImageFix" result="effect1_dropShadow_401_1791"/>
<feBlend mode="normal" in="SourceGraphic" in2="effect1_dropShadow_401_1791" result="shape"/>
<feColorMatrix in="SourceAlpha" type="matrix" values="0 0 0 0 0 0 0 0 0 0 0 0 0 0 0 0 0 0 127 0" result="hardAlpha"/>
<feOffset dy="1.56391"/>
<feGaussianBlur stdDeviation="1.56391"/>
<feComposite in2="hardAlpha" operator="arithmetic" k2="-1" k3="1"/>
<feColorMatrix type="matrix" values="0 0 0 0 1 0 0 0 0 1 0 0 0 0 1 0 0 0 0.4 0"/>
<feBlend mode="normal" in2="shape" result="effect2_innerShadow_401_1791"/>
</filter>
</defs>
</svg>
