<svg width="232" height="32" viewBox="0 0 232 32" fill="none" xmlns="http://www.w3.org/2000/svg">
<g clip-path="url(#clip0_271_1684)">
<path d="M16 0.5C24.5604 0.5 31.5 7.43959 31.5 16C31.5 24.5604 24.5604 31.5 16 31.5C7.43959 31.5 0.5 24.5604 0.5 16C0.5 7.43959 7.43959 0.5 16 0.5Z" fill="#1CA990" stroke="#1CA990"/>
<path d="M17.6953 9.5625V21H16.25V11.3672L13.3359 12.4297V11.125L17.4688 9.5625H17.6953Z" fill="white"/>
</g>
<path d="M41 16H191" stroke="#1CA990" stroke-width="4" stroke-linecap="round"/>
<g clip-path="url(#clip1_271_1684)">
<path d="M200 16C200 7.16344 207.163 0 216 0C224.837 0 232 7.16344 232 16C232 24.8366 224.837 32 216 32C207.163 32 200 24.8366 200 16Z" fill="#383A43"/>
<path d="M220.398 19.8125V21H212.953V19.9609L216.68 15.8125C217.138 15.3021 217.492 14.8698 217.742 14.5156C217.997 14.1562 218.174 13.8359 218.273 13.5547C218.378 13.2682 218.43 12.9766 218.43 12.6797C218.43 12.3047 218.352 11.9661 218.195 11.6641C218.044 11.3568 217.82 11.112 217.523 10.9297C217.227 10.7474 216.867 10.6562 216.445 10.6562C215.94 10.6562 215.518 10.7552 215.18 10.9531C214.846 11.1458 214.596 11.4167 214.43 11.7656C214.263 12.1146 214.18 12.5156 214.18 12.9688H212.734C212.734 12.3281 212.875 11.7422 213.156 11.2109C213.438 10.6797 213.854 10.2578 214.406 9.94531C214.958 9.6276 215.638 9.46875 216.445 9.46875C217.164 9.46875 217.779 9.59635 218.289 9.85156C218.799 10.1016 219.19 10.4557 219.461 10.9141C219.737 11.3672 219.875 11.8984 219.875 12.5078C219.875 12.8411 219.818 13.1797 219.703 13.5234C219.594 13.862 219.44 14.2005 219.242 14.5391C219.049 14.8776 218.823 15.2109 218.562 15.5391C218.307 15.8672 218.034 16.1901 217.742 16.5078L214.695 19.8125H220.398Z" fill="black" fill-opacity="0.25"/>
</g>
<defs>
<clipPath id="clip0_271_1684">
<rect width="32" height="32" fill="white"/>
</clipPath>
<clipPath id="clip1_271_1684">
<rect width="32" height="32" fill="white" transform="translate(200)"/>
</clipPath>
</defs>
</svg>
