<svg width="110" height="110" viewBox="0 0 110 110" fill="none" xmlns="http://www.w3.org/2000/svg">
<g clip-path="url(#clip0_231_1041)">
<path fill-rule="evenodd" clip-rule="evenodd" d="M55 110C85.3757 110 110 85.3757 110 55C110 24.6243 85.3757 0 55 0C41.3719 0 36.1917 16.3458 26.5833 24.5546C14.7756 34.6424 0 38.2524 0 55C0 85.3757 24.6243 110 55 110Z" fill="#1C1D21"/>
<path d="M25.6667 44.9166C25.6667 40.8666 28.95 37.5833 33.0001 37.5833H77.0001C81.0502 37.5833 84.3334 40.8666 84.3334 44.9166V73.3333C84.3334 77.3834 81.0502 80.6666 77.0001 80.6666H33.0001C28.95 80.6666 25.6667 77.3834 25.6667 73.3333V44.9166Z" fill="#292A30"/>
<path d="M64.1528 57.5357C65.3788 58.2406 65.3788 60.0094 64.1528 60.7143L51.3307 68.087C50.1085 68.7898 48.5835 67.9076 48.5835 66.4977L48.5835 51.7523C48.5835 50.3425 50.1085 49.4602 51.3307 50.163L64.1528 57.5357Z" fill="#1CA990"/>
</g>
<defs>
<clipPath id="clip0_231_1041">
<rect width="110" height="110" fill="white"/>
</clipPath>
</defs>
</svg>
